<svg id="svg" version="1.1" xmlns="http://www.w3.org/2000/svg" xmlns:xlink="http://www.w3.org/1999/xlink" width="400" height="263.62252663622525" viewBox="0, 0, 400,263.62252663622525"><g id="svgg"><path id="path0" d="M142.966 0.199 C 141.886 0.258,141.257 0.414,141.169 0.644 C 141.083 0.869,140.709 0.969,140.148 0.917 C 139.662 0.872,139.047 0.999,138.781 1.200 C 138.516 1.401,137.854 1.569,137.310 1.574 C 136.767 1.578,136.322 1.701,136.322 1.846 C 136.322 1.991,135.973 2.109,135.546 2.109 C 135.120 2.109,134.697 2.228,134.608 2.373 C 134.518 2.518,134.211 2.637,133.925 2.637 C 133.639 2.637,133.336 2.815,133.253 3.032 C 133.159 3.276,132.758 3.428,132.206 3.428 C 131.714 3.428,131.312 3.546,131.312 3.691 C 131.312 3.837,131.015 3.955,130.653 3.955 C 130.290 3.955,129.993 4.045,129.993 4.155 C 129.993 4.266,129.744 4.512,129.438 4.702 C 128.979 4.989,128.914 4.989,129.062 4.700 C 129.161 4.508,129.071 4.558,128.863 4.812 C 128.655 5.066,128.341 5.274,128.166 5.274 C 127.782 5.274,127.093 5.923,127.093 6.285 C 127.093 6.427,126.857 6.481,126.569 6.406 C 126.236 6.319,125.985 6.424,125.881 6.694 C 125.792 6.928,125.523 7.119,125.285 7.120 C 124.909 7.120,124.455 7.426,122.951 8.696 C 122.776 8.844,122.567 8.965,122.487 8.965 C 122.196 8.965,120.765 10.481,120.765 10.789 C 120.765 10.963,120.646 11.032,120.501 10.943 C 120.356 10.853,120.237 10.885,120.237 11.014 C 120.237 11.143,119.911 11.416,119.512 11.620 C 118.475 12.151,116.781 13.922,116.736 14.521 C 116.715 14.801,116.595 15.030,116.471 15.030 C 116.151 15.030,115.491 15.728,115.491 16.066 C 115.491 16.221,115.398 16.318,115.283 16.282 C 114.973 16.184,113.645 17.586,113.645 18.013 C 113.645 18.217,113.349 18.606,112.986 18.879 C 112.614 19.158,112.327 19.641,112.327 19.986 C 112.327 20.327,112.210 20.526,112.063 20.435 C 111.918 20.345,111.800 20.444,111.800 20.655 C 111.800 20.866,111.616 21.108,111.392 21.194 C 111.167 21.280,111.019 21.560,111.062 21.816 C 111.106 22.077,110.996 22.252,110.811 22.215 C 110.617 22.176,110.481 22.421,110.481 22.808 C 110.481 23.171,110.363 23.467,110.218 23.467 C 110.073 23.467,109.954 23.652,109.954 23.878 C 109.954 24.105,109.835 24.216,109.690 24.127 C 109.545 24.037,109.426 24.090,109.426 24.244 C 109.426 24.398,109.130 25.140,108.767 25.891 C 108.405 26.643,108.108 27.480,108.108 27.751 C 108.108 28.023,107.989 28.171,107.844 28.082 C 107.691 27.987,107.581 28.255,107.581 28.725 C 107.581 29.267,107.451 29.532,107.185 29.532 C 106.939 29.532,106.790 29.781,106.790 30.191 C 106.790 30.554,106.671 30.850,106.526 30.850 C 106.381 30.850,106.262 31.266,106.262 31.773 C 106.262 32.281,106.144 32.696,105.999 32.696 C 105.854 32.696,105.735 33.111,105.735 33.619 C 105.735 34.196,105.608 34.542,105.396 34.542 C 105.205 34.542,105.029 34.901,104.994 35.362 C 104.959 35.813,104.815 36.399,104.674 36.663 C 104.532 36.928,104.417 37.501,104.417 37.937 C 104.417 38.373,104.298 38.803,104.153 38.893 C 104.008 38.982,103.889 39.591,103.889 40.245 C 103.889 40.900,103.730 41.594,103.536 41.788 C 103.325 41.999,103.205 42.625,103.238 43.348 C 103.271 44.087,103.157 44.668,102.943 44.845 C 102.706 45.042,102.596 45.813,102.599 47.258 C 102.601 48.425,102.477 49.507,102.323 49.661 C 102.169 49.815,102.045 50.303,102.048 50.745 C 102.051 51.361,102.111 51.457,102.307 51.154 C 102.461 50.916,102.564 50.883,102.567 51.072 C 102.569 51.245,102.452 51.459,102.307 51.549 C 102.136 51.655,102.044 57.397,102.044 67.913 C 102.044 78.537,102.134 84.113,102.307 84.113 C 102.461 84.113,102.571 84.998,102.571 86.240 C 102.571 87.410,102.697 88.603,102.852 88.892 C 103.006 89.181,103.161 90.025,103.196 90.769 C 103.231 91.533,103.396 92.167,103.574 92.226 C 103.759 92.288,103.889 92.844,103.889 93.575 C 103.889 94.259,104.026 94.956,104.193 95.123 C 104.361 95.290,104.487 95.789,104.475 96.230 C 104.462 96.672,104.563 97.034,104.698 97.034 C 104.833 97.034,104.944 97.502,104.944 98.075 C 104.944 98.770,105.089 99.198,105.381 99.361 C 105.651 99.513,105.808 99.918,105.794 100.429 C 105.781 100.882,105.881 101.252,106.016 101.252 C 106.152 101.252,106.262 101.549,106.262 101.912 C 106.262 102.292,106.414 102.571,106.621 102.571 C 106.856 102.571,106.939 102.785,106.862 103.188 C 106.795 103.541,106.924 103.986,107.162 104.224 C 107.393 104.454,107.581 104.888,107.581 105.189 C 107.581 105.489,107.699 105.735,107.844 105.735 C 107.989 105.735,108.108 105.972,108.108 106.262 C 108.108 106.552,108.227 106.790,108.372 106.790 C 108.517 106.790,108.635 107.086,108.635 107.449 C 108.635 107.831,108.787 108.108,108.997 108.108 C 109.205 108.108,109.344 108.360,109.326 108.701 C 109.308 109.047,109.432 109.267,109.624 109.229 C 109.818 109.190,109.954 109.435,109.954 109.822 C 109.954 110.185,110.073 110.481,110.218 110.481 C 110.363 110.481,110.481 110.727,110.481 111.027 C 110.481 111.328,110.630 111.739,110.811 111.941 C 111.593 112.814,111.800 113.112,111.800 113.371 C 111.800 113.522,111.910 113.645,112.046 113.645 C 112.181 113.645,112.368 113.886,112.461 114.181 C 112.655 114.791,113.873 116.183,114.129 116.087 C 114.223 116.052,114.313 116.170,114.330 116.350 C 114.394 117.029,114.771 117.864,115.013 117.864 C 115.297 117.864,116.018 118.527,116.018 118.787 C 116.018 119.067,116.750 119.710,117.070 119.710 C 117.234 119.710,117.306 119.810,117.230 119.933 C 117.154 120.056,117.444 120.494,117.874 120.905 C 118.303 121.317,118.655 121.555,118.655 121.434 C 118.655 121.313,119.011 121.586,119.446 122.042 C 119.881 122.497,120.237 122.938,120.237 123.022 C 120.237 123.226,120.947 123.929,121.153 123.929 C 121.242 123.929,121.635 124.225,122.026 124.588 C 122.417 124.951,122.860 125.247,123.011 125.247 C 123.162 125.247,123.456 125.485,123.665 125.775 C 123.874 126.065,124.146 126.302,124.270 126.302 C 124.393 126.302,124.673 126.481,124.892 126.700 C 125.111 126.919,125.399 127.030,125.532 126.948 C 125.665 126.866,125.775 126.983,125.775 127.209 C 125.775 127.445,126.000 127.620,126.302 127.620 C 126.592 127.620,126.829 127.739,126.829 127.884 C 126.829 128.029,127.007 128.148,127.225 128.148 C 127.442 128.148,127.620 128.266,127.620 128.411 C 127.620 128.556,127.851 128.675,128.132 128.675 C 128.414 128.675,128.713 128.786,128.797 128.922 C 129.023 129.289,130.530 129.993,131.089 129.993 C 131.356 129.993,131.575 130.097,131.575 130.223 C 131.575 130.349,131.783 130.451,132.037 130.450 C 132.961 130.447,133.158 130.528,133.158 130.916 C 133.158 131.160,133.405 131.312,133.801 131.312 C 134.155 131.312,134.518 131.430,134.608 131.575 C 134.697 131.721,135.238 131.839,135.810 131.839 C 136.381 131.839,136.849 131.958,136.849 132.103 C 136.849 132.248,137.213 132.367,137.659 132.367 C 138.104 132.367,138.657 132.555,138.887 132.785 C 139.182 133.079,139.672 133.177,140.549 133.114 C 141.462 133.049,141.759 133.113,141.666 133.355 C 141.570 133.604,142.130 133.685,143.956 133.685 C 145.500 133.685,146.314 133.780,146.210 133.949 C 146.108 134.112,146.602 134.212,147.512 134.212 L 148.978 134.212 148.978 174.160 L 148.978 214.107 155.043 214.107 L 161.107 214.107 161.107 182.993 L 161.107 151.879 197.627 151.879 L 234.146 151.879 234.146 182.993 L 234.146 214.107 240.211 214.107 L 246.276 214.107 246.276 148.583 L 246.276 83.059 240.211 83.059 L 234.146 83.059 234.146 112.327 L 234.146 141.595 197.627 141.595 L 161.107 141.595 161.107 137.640 C 161.107 133.887,161.134 133.685,161.624 133.685 C 161.909 133.685,162.280 133.537,162.449 133.355 C 162.637 133.153,163.238 133.060,164.000 133.114 C 164.876 133.177,165.367 133.079,165.662 132.785 C 165.906 132.540,166.525 132.367,167.153 132.367 C 167.744 132.367,168.227 132.248,168.227 132.103 C 168.227 131.958,168.632 131.839,169.128 131.839 C 169.623 131.839,170.071 131.713,170.122 131.560 C 170.173 131.406,170.598 131.269,171.067 131.256 C 171.593 131.241,171.918 131.096,171.918 130.876 C 171.918 130.659,172.219 130.521,172.694 130.521 C 173.120 130.521,173.543 130.402,173.632 130.257 C 173.722 130.112,174.085 129.993,174.439 129.993 C 174.793 129.993,175.082 129.875,175.082 129.730 C 175.082 129.585,175.320 129.466,175.610 129.466 C 175.903 129.466,176.137 129.290,176.137 129.071 C 176.137 128.824,176.386 128.675,176.796 128.675 C 177.159 128.675,177.456 128.556,177.456 128.411 C 177.456 128.266,177.693 128.148,177.983 128.148 C 178.273 128.148,178.510 128.029,178.510 127.884 C 178.510 127.739,178.688 127.620,178.906 127.620 C 179.123 127.620,179.301 127.453,179.301 127.249 C 179.301 127.009,179.486 126.927,179.825 127.016 C 180.158 127.103,180.409 126.997,180.513 126.727 C 180.603 126.493,180.901 126.302,181.175 126.302 C 181.450 126.302,181.674 126.203,181.674 126.083 C 181.674 125.962,181.971 125.705,182.334 125.511 C 182.696 125.317,182.993 125.008,182.993 124.825 C 182.993 124.642,183.232 124.416,183.524 124.323 C 183.816 124.230,183.976 124.026,183.879 123.869 C 183.776 123.703,183.825 123.659,183.996 123.765 C 184.313 123.961,185.366 123.415,185.366 123.056 C 185.366 122.797,186.044 122.083,186.289 122.083 C 186.551 122.083,187.090 121.475,187.286 120.956 C 187.384 120.699,187.674 120.409,187.931 120.312 C 188.528 120.086,189.057 119.564,189.057 119.201 C 189.057 119.046,189.176 118.919,189.321 118.919 C 189.466 118.919,189.585 118.682,189.585 118.392 C 189.585 118.102,189.743 117.864,189.936 117.864 C 190.129 117.864,190.445 117.568,190.639 117.205 C 190.833 116.842,191.091 116.546,191.211 116.546 C 191.332 116.546,191.430 116.309,191.430 116.018 C 191.430 115.728,191.549 115.491,191.694 115.491 C 191.839 115.491,191.958 115.313,191.958 115.096 C 191.958 114.878,192.143 114.700,192.369 114.700 C 192.595 114.700,192.713 114.591,192.630 114.458 C 192.548 114.324,192.659 114.036,192.878 113.817 C 193.097 113.598,193.276 113.174,193.276 112.873 C 193.276 112.573,193.395 112.327,193.540 112.327 C 193.685 112.327,193.804 112.030,193.804 111.668 C 193.804 111.258,193.953 111.009,194.199 111.009 C 194.556 111.009,194.712 110.696,194.626 110.152 C 194.609 110.043,194.713 109.954,194.858 109.954 C 195.003 109.954,195.122 109.657,195.122 109.295 C 195.122 108.932,195.241 108.635,195.386 108.635 C 195.531 108.635,195.649 108.413,195.649 108.140 C 195.649 107.868,195.819 107.504,196.026 107.332 C 196.234 107.160,196.361 106.797,196.309 106.526 C 196.256 106.255,196.383 105.892,196.591 105.720 C 196.798 105.548,196.968 105.065,196.968 104.648 C 196.968 104.231,197.086 103.889,197.231 103.889 C 197.376 103.889,197.495 103.484,197.495 102.988 C 197.495 102.493,197.633 102.041,197.803 101.985 C 197.972 101.929,198.151 101.366,198.201 100.734 C 198.251 100.102,198.388 99.456,198.506 99.298 C 198.624 99.140,198.752 98.477,198.790 97.825 C 198.828 97.172,198.967 96.599,199.100 96.550 C 199.232 96.502,199.341 95.523,199.341 94.375 C 199.341 93.159,199.451 92.287,199.604 92.287 C 199.980 92.287,199.915 91.449,199.497 90.898 C 198.869 90.070,188.268 90.336,187.842 91.190 C 187.633 91.610,187.494 91.694,187.405 91.454 C 187.334 91.260,187.268 91.860,187.257 92.788 C 187.247 93.716,187.114 94.600,186.961 94.752 C 186.809 94.905,186.684 95.525,186.684 96.131 C 186.684 96.815,186.526 97.364,186.266 97.580 C 185.990 97.809,185.896 98.171,185.991 98.644 C 186.082 99.099,185.994 99.477,185.750 99.680 C 185.534 99.859,185.366 100.447,185.366 101.021 C 185.366 101.583,185.247 102.044,185.102 102.044 C 184.957 102.044,184.838 102.275,184.838 102.557 C 184.838 102.839,184.542 103.628,184.179 104.310 C 183.817 104.992,183.520 105.710,183.520 105.906 C 183.520 106.102,183.401 106.262,183.256 106.262 C 183.111 106.262,182.993 106.559,182.993 106.922 C 182.993 107.284,182.874 107.581,182.729 107.581 C 182.584 107.581,182.465 107.818,182.465 108.108 C 182.465 108.418,182.290 108.635,182.039 108.635 C 181.727 108.635,181.647 108.811,181.739 109.295 C 181.808 109.657,181.746 109.954,181.601 109.954 C 181.235 109.954,180.638 110.786,180.628 111.310 C 180.623 111.548,180.434 111.814,180.207 111.901 C 179.981 111.988,179.868 112.178,179.957 112.322 C 180.051 112.474,179.947 112.518,179.710 112.428 C 179.485 112.341,179.301 112.377,179.301 112.507 C 179.301 112.875,176.280 116.018,175.926 116.018 C 175.752 116.018,175.610 116.107,175.609 116.216 C 175.609 116.633,174.341 117.864,173.912 117.864 C 173.433 117.864,172.827 118.352,172.767 118.787 C 172.747 118.932,172.459 119.092,172.126 119.143 C 171.794 119.194,171.453 119.348,171.367 119.486 C 171.282 119.624,170.958 119.755,170.649 119.779 C 170.339 119.802,170.025 119.982,169.949 120.178 C 169.874 120.374,169.680 120.452,169.518 120.352 C 169.355 120.252,169.135 120.312,169.027 120.486 C 168.919 120.660,168.492 120.840,168.078 120.885 C 167.663 120.931,167.280 121.100,167.226 121.262 C 167.172 121.423,166.723 121.556,166.227 121.556 C 165.732 121.556,165.326 121.674,165.326 121.819 C 165.326 121.964,164.921 122.083,164.425 122.083 C 163.930 122.083,163.485 122.188,163.437 122.317 C 163.388 122.446,162.844 122.620,162.228 122.705 L 161.107 122.859 161.076 103.156 C 161.059 92.320,161.059 83.365,161.076 83.256 C 161.093 83.148,158.378 83.059,155.043 83.059 L 148.978 83.059 148.978 103.230 C 148.978 119.177,148.909 123.407,148.649 123.429 C 147.023 123.563,144.645 123.325,144.316 122.996 C 144.104 122.784,143.472 122.610,142.910 122.610 C 142.349 122.610,141.817 122.492,141.727 122.347 C 141.637 122.202,141.156 122.083,140.657 122.083 C 140.158 122.083,139.750 121.964,139.750 121.819 C 139.750 121.674,139.406 121.556,138.987 121.556 C 138.528 121.556,138.159 121.386,138.061 121.130 C 137.950 120.842,137.685 120.745,137.241 120.830 C 136.783 120.917,136.585 120.838,136.585 120.568 C 136.585 120.328,136.431 120.240,136.180 120.336 C 135.949 120.425,135.710 120.324,135.624 120.101 C 135.542 119.886,135.244 119.710,134.964 119.710 C 134.683 119.710,134.133 119.413,133.742 119.051 C 133.351 118.688,132.908 118.392,132.757 118.392 C 132.606 118.392,132.312 118.154,132.103 117.864 C 131.894 117.574,131.452 117.337,131.122 117.337 C 130.791 117.337,130.521 117.213,130.521 117.061 C 130.521 116.703,129.309 115.491,128.951 115.491 C 128.799 115.491,128.675 115.378,128.675 115.239 C 128.675 114.937,127.419 113.645,127.126 113.645 C 127.012 113.645,126.762 113.353,126.570 112.995 C 126.379 112.638,126.122 112.407,125.998 112.483 C 125.875 112.559,125.775 112.437,125.775 112.211 C 125.775 111.985,125.610 111.800,125.409 111.800 C 125.208 111.800,124.859 111.410,124.633 110.934 C 124.271 110.172,123.959 109.730,122.879 108.449 C 122.731 108.274,122.610 108.007,122.610 107.856 C 122.610 107.704,122.514 107.581,122.396 107.581 C 122.278 107.581,122.019 107.165,121.819 106.658 C 121.620 106.150,121.301 105.735,121.111 105.735 C 120.774 105.735,120.658 105.420,120.745 104.746 C 120.769 104.565,120.664 104.417,120.513 104.417 C 120.361 104.417,120.237 104.189,120.237 103.911 C 120.237 103.633,120.113 103.365,119.962 103.314 C 119.810 103.264,119.667 102.957,119.642 102.633 C 119.618 102.309,119.445 102.044,119.258 102.044 C 119.072 102.044,118.904 101.866,118.886 101.648 C 118.868 101.430,118.825 101.163,118.791 101.055 C 118.757 100.946,118.638 100.471,118.527 100.000 C 118.416 99.529,118.222 99.143,118.095 99.143 C 117.968 99.143,117.864 98.740,117.864 98.248 C 117.864 97.696,117.713 97.296,117.469 97.202 C 117.237 97.113,117.073 96.718,117.073 96.251 C 117.073 95.811,116.955 95.452,116.809 95.452 C 116.664 95.452,116.546 94.925,116.546 94.281 C 116.546 93.637,116.427 93.036,116.282 92.947 C 116.137 92.857,116.018 92.323,116.018 91.760 C 116.018 91.197,115.900 90.663,115.755 90.574 C 115.610 90.484,115.491 89.788,115.491 89.026 C 115.491 88.217,115.330 87.429,115.104 87.130 C 114.834 86.773,114.714 85.921,114.708 84.311 C 114.704 82.954,114.591 82.004,114.436 82.004 C 114.264 82.004,114.173 76.818,114.173 66.974 C 114.173 57.130,114.264 51.945,114.436 51.945 C 114.591 51.945,114.704 50.994,114.708 49.637 C 114.714 48.028,114.834 47.175,115.104 46.818 C 115.330 46.519,115.491 45.731,115.491 44.922 C 115.491 44.161,115.610 43.465,115.755 43.375 C 115.900 43.285,116.018 42.685,116.018 42.041 C 116.018 41.397,116.136 40.870,116.280 40.870 C 116.424 40.870,116.523 40.373,116.499 39.765 C 116.473 39.119,116.584 38.616,116.764 38.556 C 116.934 38.499,117.073 38.103,117.073 37.676 C 117.073 37.228,117.241 36.834,117.469 36.747 C 117.692 36.661,117.864 36.269,117.864 35.848 C 117.864 35.437,117.983 35.027,118.128 34.937 C 118.273 34.848,118.392 34.425,118.392 33.999 C 118.392 33.572,118.510 33.223,118.655 33.223 C 118.800 33.223,118.919 32.927,118.919 32.564 C 118.919 32.154,119.068 31.905,119.314 31.905 C 119.561 31.905,119.710 31.656,119.710 31.246 C 119.710 30.883,119.829 30.587,119.974 30.587 C 120.119 30.587,120.237 30.349,120.237 30.059 C 120.237 29.769,120.356 29.532,120.501 29.532 C 120.646 29.532,120.765 29.235,120.765 28.873 C 120.765 28.463,120.914 28.214,121.160 28.214 C 121.380 28.214,121.556 27.979,121.556 27.686 C 121.556 27.396,121.674 27.159,121.819 27.159 C 121.964 27.159,122.083 26.981,122.083 26.763 C 122.083 26.546,122.202 26.368,122.347 26.368 C 122.492 26.368,122.610 26.131,122.610 25.840 C 122.610 25.550,122.759 25.312,122.940 25.310 C 123.282 25.306,124.456 23.678,124.456 23.207 C 124.456 23.060,124.575 22.940,124.720 22.940 C 124.865 22.940,124.984 22.696,124.984 22.397 C 124.984 22.098,125.101 21.927,125.245 22.016 C 125.585 22.226,126.829 20.981,126.829 20.431 C 126.829 20.199,126.926 20.068,127.043 20.141 C 127.315 20.309,128.675 19.155,128.675 18.756 C 128.675 18.592,128.853 18.457,129.071 18.457 C 129.304 18.457,129.468 18.214,129.470 17.864 C 129.473 17.384,129.523 17.347,129.730 17.666 C 129.946 18.002,129.986 17.989,129.989 17.585 C 129.992 17.323,130.112 17.181,130.257 17.271 C 130.402 17.361,130.521 17.253,130.521 17.031 C 130.521 16.796,130.673 16.687,130.887 16.769 C 131.089 16.846,131.588 16.576,131.996 16.167 C 132.404 15.759,132.803 15.409,132.882 15.390 C 133.840 15.153,134.221 14.907,134.104 14.599 C 134.006 14.344,134.194 14.239,134.748 14.239 C 135.178 14.239,135.531 14.120,135.531 13.975 C 135.531 13.830,135.758 13.711,136.036 13.711 C 136.314 13.711,136.581 13.596,136.629 13.455 C 136.678 13.314,136.986 13.159,137.314 13.109 C 137.642 13.059,138.052 12.878,138.224 12.706 C 138.396 12.534,138.809 12.393,139.143 12.393 C 139.477 12.393,139.750 12.274,139.750 12.129 C 139.750 11.984,140.165 11.866,140.672 11.866 C 141.180 11.866,141.595 11.747,141.595 11.602 C 141.595 11.457,142.074 11.338,142.658 11.338 C 143.360 11.338,143.773 11.204,143.873 10.943 C 143.988 10.644,144.470 10.547,145.842 10.547 C 146.878 10.547,147.660 10.434,147.660 10.283 C 147.660 10.117,149.462 10.020,152.538 10.020 C 155.221 10.020,157.416 10.120,157.416 10.242 C 157.416 10.364,158.215 10.490,159.193 10.522 C 160.297 10.557,161.128 10.723,161.389 10.959 C 161.619 11.167,162.303 11.338,162.908 11.338 C 163.513 11.338,164.008 11.457,164.008 11.602 C 164.008 11.747,164.423 11.866,164.931 11.866 C 165.438 11.866,165.854 11.976,165.854 12.112 C 165.854 12.247,166.224 12.347,166.677 12.334 C 167.188 12.320,167.593 12.476,167.745 12.747 C 167.879 12.987,168.221 13.184,168.504 13.184 C 168.786 13.184,169.018 13.303,169.018 13.448 C 169.018 13.593,169.248 13.711,169.530 13.711 C 169.811 13.711,170.115 13.830,170.204 13.975 C 170.294 14.120,170.588 14.239,170.857 14.239 C 171.127 14.239,171.389 14.364,171.440 14.517 C 171.491 14.670,171.733 14.824,171.979 14.860 C 172.225 14.896,172.652 15.186,172.928 15.505 C 173.204 15.824,173.683 16.084,173.993 16.084 C 174.302 16.084,174.555 16.219,174.555 16.383 C 174.555 16.914,175.960 17.952,176.189 17.591 C 176.320 17.386,176.394 17.484,176.397 17.864 C 176.399 18.191,176.499 18.457,176.620 18.457 C 176.740 18.457,176.991 18.741,177.176 19.088 C 177.362 19.434,177.797 19.870,178.144 20.055 C 178.490 20.241,178.774 20.496,178.774 20.623 C 178.774 20.946,179.868 22.006,180.418 22.218 C 180.689 22.322,180.812 22.554,180.721 22.791 C 180.567 23.194,181.164 23.995,181.619 23.995 C 181.754 23.995,181.807 24.296,181.737 24.665 C 181.647 25.136,181.715 25.312,181.965 25.258 C 182.163 25.215,182.361 25.444,182.412 25.775 C 182.461 26.101,182.612 26.368,182.747 26.368 C 182.882 26.368,182.993 26.664,182.993 27.027 C 182.993 27.390,183.111 27.686,183.256 27.686 C 183.401 27.686,183.520 27.924,183.520 28.214 C 183.520 28.504,183.633 28.741,183.772 28.741 C 183.910 28.741,184.101 29.156,184.197 29.664 C 184.292 30.171,184.475 30.587,184.604 30.587 C 184.733 30.587,184.838 30.883,184.838 31.246 C 184.838 31.608,184.957 31.905,185.102 31.905 C 185.247 31.905,185.366 32.306,185.366 32.796 C 185.366 33.285,185.530 33.823,185.731 33.990 C 185.942 34.164,186.071 34.682,186.035 35.208 C 185.994 35.830,186.088 36.124,186.329 36.124 C 186.587 36.124,186.684 36.556,186.684 37.706 C 186.684 38.585,186.801 39.288,186.948 39.288 C 187.099 39.288,187.212 40.079,187.212 41.134 L 187.212 42.980 193.540 42.980 L 199.868 42.980 199.868 42.305 C 199.868 41.922,199.754 41.701,199.604 41.793 C 199.436 41.897,199.341 41.098,199.341 39.583 C 199.341 38.278,199.222 37.136,199.077 37.047 C 198.932 36.957,198.813 36.350,198.813 35.697 C 198.813 34.973,198.711 34.574,198.550 34.674 C 198.387 34.774,198.286 34.331,198.286 33.522 C 198.286 32.704,198.136 32.057,197.891 31.811 C 197.673 31.593,197.495 30.992,197.495 30.474 C 197.495 29.956,197.376 29.532,197.231 29.532 C 197.086 29.532,196.968 29.117,196.968 28.609 C 196.968 28.102,196.849 27.686,196.704 27.686 C 196.559 27.686,196.440 27.462,196.440 27.187 C 196.440 26.913,196.262 26.620,196.045 26.536 C 195.814 26.447,195.649 26.052,195.649 25.585 C 195.649 25.145,195.531 24.786,195.386 24.786 C 195.241 24.786,195.122 24.489,195.122 24.127 C 195.122 23.764,195.016 23.467,194.887 23.467 C 194.758 23.467,194.577 23.171,194.486 22.808 C 194.395 22.446,194.204 22.149,194.062 22.149 C 193.920 22.149,193.804 21.963,193.804 21.735 C 193.804 21.507,193.624 21.141,193.406 20.922 C 193.187 20.703,193.076 20.414,193.159 20.280 C 193.332 20.000,192.663 19.249,192.240 19.249 C 192.085 19.249,191.958 18.980,191.958 18.653 C 191.958 18.325,191.721 17.909,191.430 17.728 C 191.140 17.547,190.903 17.168,190.903 16.887 C 190.903 16.605,190.488 16.058,189.980 15.671 C 189.473 15.284,189.057 14.813,189.057 14.626 C 189.057 14.036,184.873 9.950,184.439 10.117 C 184.223 10.199,184.047 10.121,184.047 9.942 C 184.047 9.764,183.753 9.396,183.393 9.126 C 183.033 8.856,182.803 8.531,182.881 8.404 C 182.960 8.278,182.839 8.174,182.613 8.174 C 182.387 8.174,182.202 8.055,182.202 7.910 C 182.202 7.765,181.964 7.647,181.674 7.647 C 181.384 7.647,181.147 7.528,181.147 7.383 C 181.147 7.238,180.982 7.119,180.780 7.119 C 180.578 7.119,180.344 6.941,180.261 6.724 C 180.177 6.506,179.927 6.328,179.705 6.328 C 179.483 6.328,179.301 6.210,179.301 6.065 C 179.301 5.920,179.005 5.801,178.642 5.801 C 178.279 5.801,177.983 5.682,177.983 5.537 C 177.983 5.392,177.746 5.274,177.456 5.274 C 177.165 5.274,176.928 5.115,176.928 4.920 C 176.928 4.726,176.424 4.409,175.808 4.215 C 175.191 4.022,174.574 3.765,174.436 3.646 C 174.299 3.526,174.023 3.428,173.824 3.428 C 173.625 3.428,173.285 3.250,173.067 3.032 C 172.850 2.815,172.383 2.637,172.031 2.637 C 171.679 2.637,171.391 2.518,171.391 2.373 C 171.391 2.228,170.983 2.109,170.484 2.109 C 169.985 2.109,169.503 1.991,169.413 1.846 C 169.324 1.701,168.797 1.582,168.243 1.582 C 167.690 1.582,167.104 1.423,166.943 1.228 C 166.761 1.008,166.146 0.886,165.328 0.905 C 164.461 0.926,164.008 0.828,164.008 0.621 C 164.008 0.140,149.427 -0.152,142.966 0.199 M169.657 233.070 C 169.595 233.130,169.545 234.940,169.545 237.091 C 169.545 240.392,169.483 241.002,169.150 241.002 C 168.932 241.002,168.784 240.854,168.820 240.672 C 168.923 240.158,162.836 240.112,162.412 240.624 C 162.239 240.832,161.922 241.002,161.708 241.002 C 161.227 241.002,159.789 242.505,159.789 243.007 C 159.789 243.210,159.670 243.375,159.525 243.375 C 159.380 243.375,159.262 243.603,159.262 243.881 C 159.262 244.159,159.095 244.723,158.891 245.134 C 158.686 245.544,158.400 246.177,158.255 246.539 C 157.869 247.498,157.942 250.696,158.368 251.511 C 158.567 251.895,158.732 252.535,158.733 252.933 C 158.734 253.332,158.853 253.659,158.998 253.659 C 159.143 253.659,159.262 253.815,159.262 254.007 C 159.262 254.530,160.696 256.032,161.197 256.032 C 161.438 256.032,161.635 256.150,161.635 256.295 C 161.635 256.440,162.080 256.561,162.624 256.563 C 163.265 256.566,163.489 256.645,163.261 256.790 C 162.717 257.135,163.523 257.350,165.356 257.350 C 166.507 257.350,166.965 257.245,167.077 256.955 C 167.163 256.729,167.556 256.559,167.991 256.559 C 168.411 256.559,168.754 256.440,168.754 256.295 C 168.754 256.150,168.932 256.032,169.150 256.032 C 169.367 256.032,169.545 256.150,169.545 256.295 C 169.545 256.446,170.336 256.559,171.391 256.559 L 173.237 256.559 173.237 244.729 L 173.237 232.899 171.503 232.929 C 170.549 232.946,169.718 233.009,169.657 233.070 M396.699 233.053 C 396.629 233.123,396.572 234.932,396.572 237.074 C 396.572 240.807,396.550 240.968,396.045 240.929 C 395.755 240.908,395.517 240.737,395.517 240.550 C 395.517 240.293,394.777 240.211,392.457 240.211 C 389.777 240.211,389.416 240.263,389.556 240.627 C 389.688 240.970,389.577 241.013,388.925 240.870 C 388.381 240.751,388.134 240.798,388.134 241.021 C 388.134 241.199,387.601 241.849,386.948 242.466 C 386.295 243.082,385.761 243.785,385.761 244.027 C 385.761 244.269,385.610 244.619,385.424 244.805 C 384.979 245.249,385.018 252.664,385.465 252.813 C 385.628 252.867,385.761 253.198,385.761 253.549 C 385.761 253.933,385.915 254.186,386.149 254.186 C 386.384 254.186,386.477 254.340,386.384 254.581 C 386.301 254.799,386.375 254.977,386.550 254.977 C 386.725 254.977,387.201 255.333,387.607 255.768 C 388.121 256.318,388.595 256.559,389.163 256.559 C 389.714 256.559,389.980 256.688,389.980 256.955 C 389.980 257.266,390.347 257.350,391.702 257.350 C 392.990 257.350,393.463 257.250,393.576 256.955 C 393.667 256.718,394.064 256.559,394.565 256.559 C 395.099 256.559,395.539 256.368,395.781 256.032 C 395.990 255.742,396.254 255.504,396.367 255.504 C 396.480 255.504,396.572 255.742,396.572 256.032 C 396.572 256.600,399.259 256.854,399.591 256.317 C 399.674 256.183,399.770 250.873,399.805 244.517 L 399.868 232.960 398.347 232.943 C 397.510 232.934,396.768 232.983,396.699 233.053 M6.920 234.543 C 6.735 234.752,6.393 234.844,6.149 234.751 C 5.816 234.623,5.751 234.690,5.879 235.023 C 6.043 235.451,5.699 235.600,4.812 235.484 C 4.631 235.461,4.483 235.565,4.483 235.717 C 4.483 235.868,4.331 235.992,4.146 235.992 C 3.650 235.992,2.109 237.477,2.109 237.955 C 2.109 238.181,1.984 238.365,1.830 238.365 C 1.677 238.365,1.625 238.485,1.715 238.631 C 1.805 238.777,1.704 238.963,1.491 239.045 C 1.277 239.127,1.029 239.487,0.939 239.845 C 0.849 240.203,0.677 240.435,0.556 240.360 C 0.228 240.158,0.003 242.576,0.017 246.144 C 0.031 249.544,0.247 251.320,0.643 251.290 C 0.779 251.279,0.920 251.480,0.958 251.735 C 0.995 251.990,1.151 252.240,1.304 252.291 C 1.457 252.342,1.582 252.620,1.582 252.908 C 1.582 253.482,2.162 254.186,2.634 254.186 C 2.797 254.186,2.858 254.305,2.769 254.450 C 2.679 254.595,2.791 254.713,3.017 254.713 C 3.243 254.713,3.428 254.891,3.428 255.109 C 3.428 255.328,3.662 255.504,3.955 255.504 C 4.245 255.504,4.483 255.598,4.483 255.712 C 4.483 255.826,4.748 255.939,5.072 255.964 C 5.396 255.988,5.703 256.132,5.753 256.284 C 5.804 256.435,6.199 256.559,6.633 256.559 C 7.066 256.559,7.599 256.737,7.816 256.955 C 8.105 257.244,8.811 257.350,10.442 257.350 C 12.182 257.350,12.707 257.263,12.825 256.955 C 12.931 256.678,13.363 256.559,14.267 256.559 C 14.976 256.559,15.557 256.440,15.557 256.295 C 15.557 256.150,15.782 256.032,16.058 256.032 C 17.002 256.032,16.709 252.498,15.755 252.389 C 15.237 252.329,15.030 252.423,15.030 252.718 C 15.030 253.014,14.769 253.131,14.107 253.131 C 13.599 253.131,13.184 253.250,13.184 253.395 C 13.184 253.550,12.261 253.659,10.943 253.659 C 9.461 253.659,8.701 253.558,8.701 253.363 C 8.701 253.170,8.546 253.193,8.255 253.428 C 7.952 253.674,7.873 253.685,8.007 253.461 C 8.134 253.249,8.047 253.131,7.763 253.131 C 7.520 253.131,6.856 252.652,6.288 252.067 C 5.699 251.459,5.126 251.082,4.956 251.187 C 4.759 251.309,4.714 251.222,4.825 250.933 C 4.918 250.692,4.878 250.494,4.738 250.494 C 4.597 250.494,4.483 250.257,4.483 249.967 C 4.483 249.677,4.364 249.440,4.219 249.440 C 4.074 249.440,3.955 249.107,3.955 248.701 C 3.955 248.295,3.819 247.826,3.652 247.660 C 3.290 247.298,3.330 244.158,3.701 243.787 C 3.841 243.647,3.955 243.201,3.955 242.795 C 3.955 242.389,4.074 242.057,4.219 242.057 C 4.364 242.057,4.483 241.760,4.483 241.397 C 4.483 240.987,4.632 240.738,4.878 240.738 C 5.096 240.738,5.274 240.643,5.274 240.526 C 5.274 240.123,7.060 238.365,7.469 238.365 C 7.695 238.365,7.953 238.247,8.042 238.102 C 8.132 237.956,8.530 237.838,8.928 237.838 C 9.325 237.838,9.763 237.727,9.901 237.592 C 10.332 237.168,12.351 237.084,12.504 237.483 C 12.579 237.678,12.993 237.838,13.424 237.838 C 13.855 237.838,14.281 237.956,14.370 238.102 C 14.460 238.247,15.001 238.365,15.573 238.365 L 16.612 238.365 16.612 236.519 C 16.612 234.849,16.562 234.674,16.084 234.674 C 15.794 234.674,15.557 234.555,15.557 234.410 C 15.557 233.959,7.322 234.086,6.920 234.543 M203.560 245.353 L 203.560 256.559 205.405 256.559 L 207.251 256.559 207.251 251.681 L 207.251 246.803 212.129 246.803 L 217.007 246.803 217.007 251.681 L 217.007 256.559 218.853 256.559 L 220.699 256.559 220.699 245.341 L 220.699 234.122 218.919 234.200 L 217.139 234.278 217.067 239.090 L 216.995 243.902 212.123 243.902 L 207.251 243.902 207.251 239.024 L 207.251 234.146 205.405 234.146 L 203.560 234.146 203.560 245.353 M23.030 240.622 C 22.943 240.847,22.710 240.970,22.513 240.895 C 22.316 240.819,21.862 241.049,21.504 241.407 C 21.147 241.764,20.781 242.057,20.692 242.057 C 20.292 242.057,19.776 242.872,19.776 243.504 C 19.776 243.899,19.662 244.127,19.512 244.034 C 19.354 243.937,19.247 244.274,19.244 244.876 C 19.242 245.539,19.163 245.758,19.014 245.522 C 18.625 244.909,18.546 245.511,18.568 248.891 C 18.584 251.256,18.682 252.195,18.919 252.274 C 19.100 252.335,19.249 252.627,19.249 252.924 C 19.249 253.222,19.467 253.657,19.734 253.891 C 20.002 254.126,20.368 254.596,20.548 254.936 C 20.771 255.357,21.037 255.512,21.381 255.422 C 21.670 255.346,21.818 255.400,21.727 255.546 C 21.490 255.930,22.440 256.541,23.288 256.551 C 23.698 256.555,24.211 256.737,24.429 256.955 C 24.923 257.449,28.510 257.384,28.679 256.878 C 28.737 256.702,29.190 256.559,29.686 256.559 C 30.181 256.559,30.587 256.440,30.587 256.295 C 30.587 256.150,30.765 256.032,30.982 256.032 C 31.200 256.032,31.378 255.921,31.378 255.786 C 31.378 255.650,31.615 255.465,31.905 255.372 C 32.247 255.264,32.432 254.973,32.432 254.548 C 32.432 254.174,32.547 253.962,32.698 254.055 C 33.074 254.288,33.751 253.536,33.751 252.886 C 33.751 252.586,33.858 252.340,33.990 252.340 C 34.121 252.340,34.245 250.560,34.264 248.385 C 34.287 245.798,34.205 244.430,34.025 244.430 C 33.874 244.430,33.751 244.205,33.751 243.931 C 33.751 243.656,33.572 243.363,33.353 243.279 C 33.134 243.195,32.981 243.034,33.013 242.921 C 33.128 242.517,32.297 241.529,31.842 241.529 C 31.586 241.529,31.378 241.338,31.378 241.105 C 31.378 240.785,31.217 240.721,30.719 240.847 C 30.232 240.969,30.059 240.907,30.059 240.611 C 30.059 240.006,23.262 240.015,23.030 240.622 M37.442 248.385 L 37.442 256.559 39.288 256.559 L 41.134 256.559 41.134 251.169 C 41.134 247.631,41.231 245.720,41.415 245.605 C 41.570 245.509,41.640 245.283,41.570 245.101 C 41.439 244.759,42.260 243.902,42.719 243.902 C 42.862 243.902,42.980 243.784,42.980 243.639 C 42.980 243.116,45.211 243.340,45.616 243.902 C 45.825 244.192,46.148 244.430,46.334 244.430 C 46.558 244.430,46.671 244.828,46.671 245.616 C 46.671 246.269,46.790 246.803,46.935 246.803 C 47.101 246.803,47.198 248.609,47.198 251.693 L 47.198 256.583 48.978 256.505 L 50.758 256.427 50.829 250.789 L 50.901 245.150 51.843 244.287 C 52.748 243.458,55.109 242.858,55.109 243.458 C 55.109 243.814,55.822 244.420,56.014 244.228 C 56.112 244.130,56.113 244.254,56.017 244.504 C 55.917 244.764,55.968 244.957,56.135 244.957 C 56.340 244.957,56.427 246.693,56.427 250.758 L 56.427 256.559 58.141 256.559 L 59.855 256.559 59.855 249.967 C 59.855 245.748,59.760 243.375,59.591 243.375 C 59.446 243.375,59.328 243.139,59.328 242.850 C 59.328 242.232,58.331 241.002,57.830 241.002 C 57.638 241.002,57.482 240.824,57.482 240.606 C 57.482 240.081,51.854 240.022,51.276 240.541 C 51.074 240.722,50.751 240.989,50.559 241.134 C 50.366 241.279,49.938 241.631,49.607 241.917 C 49.276 242.203,49.028 242.322,49.056 242.181 C 49.180 241.554,48.999 241.235,48.385 241.002 C 48.022 240.864,47.726 240.623,47.726 240.466 C 47.726 240.088,42.651 240.174,42.407 240.556 C 42.146 240.965,41.134 240.971,41.134 240.562 C 41.134 240.303,40.650 240.211,39.288 240.211 L 37.442 240.211 37.442 248.385 M63.868 240.433 C 63.601 240.603,63.547 243.023,63.605 252.097 L 63.678 263.546 65.458 263.564 L 67.238 263.582 67.238 259.807 C 67.238 256.184,67.333 255.705,67.931 256.302 C 68.079 256.451,68.579 256.600,69.040 256.632 C 69.572 256.669,69.835 256.808,69.757 257.011 C 69.669 257.242,70.112 257.327,71.354 257.317 C 72.582 257.308,73.114 257.198,73.216 256.931 C 73.300 256.712,73.726 256.559,74.254 256.559 C 74.746 256.559,75.148 256.441,75.148 256.298 C 75.148 256.154,75.562 255.768,76.068 255.441 C 76.574 255.113,76.989 254.697,76.991 254.515 C 76.993 254.334,77.113 254.186,77.258 254.186 C 77.403 254.186,77.521 253.945,77.521 253.650 C 77.521 253.356,77.676 253.055,77.866 252.982 C 78.058 252.909,78.239 252.358,78.275 251.738 C 78.310 251.127,78.452 250.587,78.589 250.538 C 78.929 250.419,78.916 245.748,78.576 245.748 C 78.431 245.748,78.312 245.341,78.312 244.844 C 78.312 244.347,78.134 243.762,77.917 243.545 C 77.699 243.327,77.521 243.015,77.521 242.851 C 77.521 242.687,77.403 242.626,77.258 242.716 C 77.108 242.808,76.994 242.587,76.994 242.204 C 76.994 241.807,76.845 241.529,76.631 241.529 C 76.431 241.529,76.121 241.353,75.942 241.137 C 75.763 240.921,75.511 240.809,75.382 240.889 C 75.254 240.968,75.148 240.848,75.148 240.622 C 75.148 239.974,69.313 240.020,68.660 240.672 C 68.406 240.926,68.131 241.134,68.048 241.134 C 67.965 241.134,67.927 241.223,67.963 241.332 C 67.999 241.440,67.851 241.529,67.633 241.529 C 67.387 241.529,67.238 241.280,67.238 240.870 C 67.238 240.181,64.769 239.861,63.868 240.433 M81.389 240.387 C 81.292 240.483,81.211 243.361,81.208 246.781 L 81.203 252.999 81.933 254.508 C 82.497 255.674,82.798 256.019,83.256 256.024 C 83.583 256.028,83.850 256.150,83.850 256.295 C 83.850 256.440,84.036 256.559,84.264 256.559 C 84.492 256.559,84.856 256.737,85.074 256.955 C 85.335 257.216,85.993 257.350,87.014 257.350 C 88.035 257.350,88.692 257.216,88.954 256.955 C 89.171 256.737,89.512 256.559,89.711 256.559 C 89.910 256.559,90.230 256.411,90.422 256.229 C 90.701 255.966,90.795 255.966,90.892 256.229 C 90.973 256.450,91.618 256.559,92.837 256.559 L 94.661 256.559 94.661 248.385 L 94.661 240.211 93.232 240.211 C 90.812 240.211,90.969 239.807,90.969 246.037 C 90.969 251.938,91.010 251.735,89.535 253.164 C 89.020 253.662,86.223 253.911,86.223 253.457 C 86.223 253.347,85.956 253.139,85.630 252.996 C 85.042 252.738,85.036 252.675,84.965 246.683 C 84.913 242.245,84.808 240.576,84.570 240.425 C 84.173 240.173,81.633 240.143,81.389 240.387 M98.512 240.628 C 98.424 240.857,98.352 244.536,98.352 248.802 L 98.352 256.559 100.198 256.559 L 102.044 256.559 102.044 251.681 C 102.044 248.605,102.141 246.803,102.307 246.803 C 102.452 246.803,102.571 246.477,102.571 246.078 C 102.572 245.290,103.596 243.905,104.184 243.898 C 104.474 243.895,104.467 243.842,104.153 243.639 C 103.866 243.454,104.099 243.382,104.994 243.379 C 105.675 243.377,106.305 243.494,106.394 243.639 C 106.484 243.784,106.787 243.902,107.069 243.902 C 107.357 243.902,107.581 244.082,107.581 244.314 C 107.581 244.540,107.686 244.660,107.815 244.580 C 107.943 244.501,108.043 244.583,108.037 244.762 C 108.030 244.942,108.044 247.670,108.067 250.824 L 108.108 256.559 109.954 256.559 L 111.800 256.559 111.800 251.417 C 111.800 248.165,111.897 246.276,112.063 246.276 C 112.208 246.276,112.327 246.033,112.327 245.736 C 112.327 245.175,113.417 243.902,113.897 243.902 C 114.049 243.902,114.173 243.784,114.173 243.639 C 114.173 243.494,114.588 243.375,115.096 243.375 C 115.603 243.375,116.018 243.494,116.018 243.639 C 116.018 243.784,116.107 243.884,116.216 243.861 C 116.728 243.752,117.337 244.284,117.337 244.838 C 117.337 245.176,117.456 245.527,117.601 245.616 C 117.762 245.716,117.864 247.860,117.864 251.169 L 117.864 256.559 119.710 256.559 L 121.556 256.559 121.556 250.354 C 121.556 245.082,121.496 244.127,121.160 243.998 C 120.943 243.914,120.765 243.529,120.765 243.142 C 120.765 242.431,119.387 240.622,119.080 240.929 C 118.991 241.018,118.919 240.906,118.919 240.681 C 118.919 239.871,113.348 240.023,112.447 240.858 C 112.049 241.227,111.572 241.529,111.388 241.529 C 111.203 241.529,111.006 241.668,110.950 241.838 C 110.891 242.015,110.422 241.734,109.850 241.179 L 108.854 240.211 106.108 240.211 C 104.453 240.211,103.362 240.316,103.362 240.475 C 103.362 240.620,103.184 240.738,102.966 240.738 C 102.749 240.738,102.571 240.916,102.571 241.134 C 102.571 241.351,102.452 241.529,102.307 241.529 C 102.162 241.529,102.044 241.233,102.044 240.870 C 102.044 240.046,98.820 239.825,98.512 240.628 M124.632 240.387 C 124.226 240.792,124.437 253.140,124.852 253.300 C 125.069 253.383,125.247 253.706,125.248 254.016 C 125.248 254.647,126.321 256.032,126.810 256.032 C 126.983 256.032,127.051 256.150,126.961 256.295 C 126.863 256.455,127.222 256.559,127.868 256.559 C 128.584 256.559,128.917 256.668,128.873 256.889 C 128.768 257.413,132.069 257.482,132.269 256.959 C 132.354 256.739,132.707 256.559,133.054 256.559 C 133.401 256.559,133.685 256.440,133.685 256.295 C 133.685 256.150,133.989 256.032,134.360 256.032 C 134.742 256.032,134.964 256.146,134.871 256.295 C 134.769 256.462,135.396 256.559,136.570 256.559 L 138.431 256.559 138.431 248.385 L 138.431 240.211 136.745 240.211 C 134.657 240.211,134.791 239.837,134.752 245.778 C 134.734 248.628,134.616 250.662,134.467 250.714 C 134.327 250.762,134.212 251.006,134.212 251.255 C 134.212 252.035,133.572 253.127,133.114 253.129 C 132.872 253.130,132.627 253.272,132.570 253.444 C 132.445 253.819,129.644 253.760,129.510 253.380 C 129.462 253.243,129.254 253.131,129.049 253.131 C 128.826 253.131,128.675 252.865,128.675 252.472 C 128.675 252.109,128.556 251.813,128.411 251.813 C 128.244 251.813,128.148 249.703,128.148 246.012 L 128.148 240.211 126.478 240.211 C 125.559 240.211,124.729 240.290,124.632 240.387 M142.185 248.319 L 142.254 256.427 144.034 256.466 L 145.814 256.505 145.814 251.127 C 145.814 247.972,145.916 245.748,146.060 245.748 C 146.196 245.748,146.344 245.422,146.390 245.023 C 146.437 244.615,146.618 244.327,146.803 244.364 C 146.984 244.400,147.132 244.311,147.132 244.166 C 147.132 244.021,147.370 243.902,147.660 243.902 C 147.950 243.902,148.187 243.772,148.187 243.612 C 148.187 243.430,148.629 243.357,149.373 243.416 C 150.025 243.468,150.609 243.391,150.671 243.245 C 150.732 243.099,150.792 243.187,150.803 243.441 C 150.815 243.695,150.943 243.902,151.088 243.902 C 151.233 243.902,151.351 244.130,151.351 244.408 C 151.351 244.686,151.463 244.953,151.600 245.001 C 151.741 245.051,151.883 247.531,151.929 250.758 L 152.011 256.427 153.790 256.505 L 155.570 256.583 155.570 250.032 C 155.570 243.435,155.400 242.064,154.581 242.059 C 154.400 242.058,154.252 241.901,154.252 241.711 C 154.252 240.759,152.862 240.280,149.958 240.230 C 148.404 240.203,147.132 240.288,147.132 240.418 C 147.132 240.547,146.836 240.789,146.473 240.954 C 145.891 241.219,145.814 241.193,145.814 240.733 C 145.814 240.262,145.632 240.211,143.965 240.211 L 142.115 240.211 142.185 248.319 M180.514 240.633 C 180.436 240.836,180.158 241.002,179.895 241.002 C 179.633 241.002,179.247 241.239,179.038 241.529 C 178.829 241.819,178.557 242.057,178.433 242.057 C 177.890 242.057,176.928 243.733,176.928 244.678 C 176.928 244.945,176.773 245.224,176.583 245.297 C 176.104 245.481,176.123 252.116,176.603 252.276 C 176.782 252.335,176.928 252.671,176.928 253.021 C 176.928 253.372,177.047 253.659,177.192 253.659 C 177.337 253.659,177.459 253.807,177.464 253.988 C 177.479 254.525,178.319 255.375,179.236 255.782 C 179.707 255.990,180.092 256.250,180.092 256.360 C 180.092 256.469,180.434 256.559,180.851 256.559 C 181.268 256.559,181.757 256.737,181.938 256.955 C 182.171 257.235,182.787 257.350,184.061 257.350 C 185.305 257.350,185.977 257.229,186.251 256.955 C 186.469 256.737,187.011 256.559,187.456 256.559 C 187.902 256.559,188.266 256.440,188.266 256.295 C 188.266 256.150,188.444 256.032,188.662 256.032 C 188.879 256.032,189.057 255.834,189.057 255.592 C 189.057 255.350,189.131 255.227,189.221 255.317 C 189.495 255.591,191.430 253.454,191.430 252.878 C 191.430 252.582,191.549 252.340,191.694 252.340 C 191.858 252.340,191.958 250.895,191.958 248.532 C 191.958 246.278,191.850 244.658,191.694 244.562 C 191.549 244.472,191.430 244.168,191.430 243.887 C 191.430 243.605,191.312 243.375,191.167 243.375 C 191.022 243.375,190.903 243.184,190.903 242.951 C 190.903 242.670,190.760 242.582,190.478 242.691 C 190.172 242.808,190.097 242.741,190.209 242.447 C 190.312 242.180,190.141 241.938,189.711 241.743 C 189.352 241.579,189.057 241.273,189.057 241.063 C 189.057 240.787,188.874 240.727,188.398 240.847 C 187.906 240.970,187.739 240.908,187.739 240.600 C 187.739 240.021,180.737 240.053,180.514 240.633 M222.874 240.386 C 222.481 240.544,222.432 241.693,222.808 241.925 C 222.953 242.014,223.072 242.381,223.072 242.740 C 223.072 243.098,223.250 243.460,223.467 243.543 C 223.685 243.627,223.863 243.972,223.863 244.311 C 223.863 244.649,223.982 244.999,224.127 245.089 C 224.272 245.179,224.390 245.535,224.390 245.880 C 224.390 246.225,224.509 246.581,224.654 246.671 C 224.799 246.761,224.918 247.111,224.918 247.449 C 224.918 247.788,225.081 248.127,225.280 248.204 C 225.480 248.281,225.643 248.674,225.643 249.078 C 225.643 249.482,225.776 249.858,225.939 249.912 C 226.103 249.966,226.236 250.298,226.236 250.648 C 226.236 250.999,226.355 251.285,226.500 251.285 C 226.645 251.285,226.763 251.586,226.763 251.953 C 226.763 252.320,226.950 252.692,227.178 252.780 C 227.465 252.889,227.545 253.133,227.437 253.564 C 227.329 253.991,227.386 254.168,227.615 254.122 C 227.856 254.073,227.972 254.591,228.027 255.966 C 228.093 257.580,228.039 257.877,227.680 257.877 C 227.376 257.877,227.302 258.026,227.422 258.403 C 227.615 259.012,226.420 260.228,225.615 260.242 C 225.264 260.248,225.171 260.382,225.286 260.712 C 225.439 261.151,225.429 261.151,225.087 260.712 C 224.880 260.447,224.376 260.250,223.900 260.250 L 223.072 260.250 223.072 262.000 L 223.072 263.749 225.743 263.620 C 227.867 263.518,228.463 263.402,228.658 263.054 C 228.793 262.813,229.121 262.410,229.387 262.158 C 230.120 261.466,230.982 259.788,230.982 259.056 C 230.982 258.653,231.133 258.405,231.378 258.405 C 231.595 258.405,231.773 258.174,231.773 257.893 C 231.773 257.611,231.892 257.308,232.037 257.218 C 232.182 257.129,232.301 256.937,232.301 256.792 C 232.301 256.647,232.193 256.594,232.062 256.676 C 231.930 256.757,231.960 256.527,232.127 256.166 C 232.295 255.804,232.521 255.507,232.630 255.506 C 232.739 255.505,232.828 255.208,232.828 254.845 C 232.828 254.483,232.947 254.186,233.092 254.186 C 233.237 254.186,233.355 253.771,233.355 253.263 C 233.355 252.618,233.475 252.340,233.751 252.340 C 233.997 252.340,234.146 252.091,234.146 251.681 C 234.146 251.318,234.265 251.022,234.410 251.022 C 234.555 251.022,234.674 250.666,234.674 250.231 C 234.674 249.796,234.805 249.440,234.966 249.440 C 235.126 249.440,235.190 249.263,235.106 249.046 C 235.023 248.828,235.202 248.423,235.507 248.138 C 235.887 247.785,236.019 247.413,235.930 246.950 C 235.843 246.494,235.918 246.276,236.160 246.276 C 236.368 246.276,236.519 245.997,236.519 245.616 C 236.519 245.254,236.638 244.957,236.783 244.957 C 236.928 244.957,237.047 244.614,237.047 244.194 C 237.047 243.760,237.217 243.366,237.442 243.280 C 237.660 243.196,237.838 242.894,237.838 242.608 C 237.838 242.322,237.956 242.014,238.102 241.925 C 238.247 241.835,238.365 241.413,238.365 240.986 L 238.365 240.211 236.519 240.211 C 235.055 240.211,234.674 240.293,234.674 240.606 C 234.674 240.824,234.555 241.002,234.410 241.002 C 234.265 241.002,234.146 241.239,234.146 241.529 C 234.146 241.819,234.028 242.057,233.883 242.057 C 233.738 242.057,233.619 242.416,233.619 242.856 C 233.619 243.323,233.455 243.718,233.223 243.807 C 232.979 243.901,232.828 244.302,232.828 244.854 C 232.828 245.346,232.709 245.748,232.564 245.748 C 232.419 245.748,232.301 246.045,232.301 246.407 C 232.301 246.770,232.167 247.067,232.005 247.067 C 231.812 247.067,231.835 247.222,232.071 247.513 C 232.316 247.816,232.327 247.895,232.103 247.761 C 231.873 247.623,231.773 247.768,231.773 248.238 C 231.773 248.611,231.622 248.912,231.435 248.912 C 231.249 248.912,231.072 249.220,231.041 249.595 C 230.935 250.871,229.927 251.344,229.927 250.118 C 229.927 249.766,229.750 249.299,229.532 249.082 C 229.314 248.864,229.136 248.388,229.136 248.024 C 229.136 247.659,229.018 247.288,228.873 247.198 C 228.728 247.109,228.609 246.759,228.609 246.420 C 228.609 246.082,228.450 245.744,228.256 245.669 C 228.026 245.581,227.944 245.247,228.022 244.718 C 228.113 244.094,228.042 243.902,227.716 243.902 C 227.406 243.902,227.291 243.653,227.291 242.980 C 227.291 242.472,227.172 242.057,227.027 242.057 C 226.882 242.057,226.763 241.641,226.763 241.134 L 226.763 240.211 224.984 240.232 C 224.005 240.243,223.055 240.312,222.874 240.386 M239.859 240.387 C 239.763 240.483,239.684 245.764,239.684 252.120 L 239.684 263.678 241.409 263.678 C 242.636 263.678,243.122 263.583,243.092 263.349 C 242.850 261.486,243.159 256.032,243.507 256.032 C 243.724 256.032,243.902 256.150,243.902 256.295 C 243.902 256.440,244.373 256.559,244.949 256.559 C 245.771 256.559,245.963 256.644,245.844 256.955 C 245.718 257.281,245.994 257.350,247.434 257.350 C 248.807 257.350,249.176 257.266,249.176 256.955 C 249.176 256.737,249.390 256.559,249.651 256.559 C 249.912 256.559,250.285 256.411,250.480 256.229 C 250.764 255.966,250.798 255.966,250.649 256.229 C 250.547 256.411,250.589 256.559,250.743 256.559 C 250.896 256.559,251.022 256.440,251.022 256.295 C 251.022 256.150,251.149 256.032,251.304 256.032 C 251.676 256.032,252.340 255.358,252.340 254.980 C 252.340 254.816,252.459 254.755,252.604 254.845 C 252.749 254.935,252.868 254.823,252.868 254.597 C 252.868 254.371,253.045 254.186,253.263 254.186 C 253.481 254.186,253.659 253.956,253.659 253.674 C 253.659 253.393,253.777 253.089,253.922 252.999 C 254.067 252.910,254.186 252.428,254.186 251.929 C 254.186 251.430,254.305 251.022,254.450 251.022 C 254.609 251.022,254.713 249.879,254.713 248.121 C 254.713 246.363,254.609 245.221,254.450 245.221 C 254.305 245.221,254.186 244.806,254.186 244.298 C 254.186 243.790,254.067 243.375,253.922 243.375 C 253.777 243.375,253.657 243.227,253.654 243.045 C 253.647 242.494,252.148 240.975,251.567 240.931 C 251.267 240.908,251.022 240.737,251.022 240.550 C 251.022 240.296,250.351 240.211,248.338 240.211 C 245.584 240.211,243.902 240.581,243.902 241.187 C 243.902 241.375,243.724 241.529,243.507 241.529 C 243.261 241.529,243.111 241.280,243.111 240.870 C 243.111 240.217,240.428 239.818,239.859 240.387 M260.945 240.610 C 260.855 240.844,260.677 240.971,260.550 240.892 C 260.336 240.760,260.057 240.945,258.757 242.085 C 257.754 242.964,257.350 243.673,257.350 244.556 C 257.350 245.258,257.259 245.433,256.955 245.316 C 256.615 245.186,256.559 245.671,256.559 248.752 C 256.559 251.766,256.622 252.340,256.955 252.340 C 257.231 252.340,257.350 252.618,257.350 253.263 C 257.350 253.771,257.449 254.186,257.569 254.186 C 257.690 254.186,257.947 254.483,258.141 254.845 C 258.335 255.208,258.652 255.504,258.845 255.504 C 259.038 255.504,259.196 255.623,259.196 255.768 C 259.196 255.913,259.499 256.032,259.871 256.032 C 260.253 256.032,260.475 256.146,260.382 256.295 C 260.291 256.444,260.501 256.559,260.862 256.559 C 261.215 256.559,261.647 256.731,261.821 256.940 C 262.252 257.460,266.034 257.440,266.234 256.916 C 266.313 256.712,266.757 256.559,267.270 256.559 C 268.143 256.559,268.974 256.223,269.667 255.589 C 270.174 255.125,270.114 252.701,269.590 252.500 C 268.849 252.216,268.161 252.330,268.161 252.736 C 268.161 252.959,267.925 253.131,267.618 253.131 C 267.319 253.131,267.143 253.241,267.226 253.375 C 267.468 253.768,263.115 253.851,262.726 253.461 C 262.545 253.279,262.211 253.131,261.983 253.131 C 261.755 253.131,261.569 252.941,261.569 252.707 C 261.569 252.439,261.424 252.339,261.173 252.435 C 260.888 252.545,260.778 252.407,260.778 251.936 C 260.778 251.578,260.659 251.285,260.514 251.285 C 260.369 251.285,260.250 250.989,260.250 250.626 L 260.250 249.967 265.392 249.967 L 270.534 249.967 270.534 246.935 C 270.534 245.089,270.431 243.902,270.270 243.902 C 270.125 243.902,270.007 243.657,270.007 243.356 C 270.007 243.056,269.829 242.632,269.611 242.415 C 269.394 242.197,269.216 242.107,269.216 242.214 C 269.216 242.321,268.771 241.927,268.227 241.340 L 267.238 240.272 264.173 240.228 C 261.569 240.191,261.084 240.248,260.945 240.610 M273.500 240.386 C 273.247 240.488,273.171 242.369,273.171 248.539 L 273.171 256.559 274.885 256.559 L 276.599 256.559 276.599 252.368 C 276.599 248.887,276.665 248.152,276.994 248.026 C 277.255 247.926,277.390 247.513,277.390 246.811 C 277.390 246.227,277.508 245.748,277.653 245.748 C 277.798 245.748,277.917 245.502,277.917 245.202 C 277.917 244.503,278.517 243.902,279.216 243.902 C 279.517 243.902,279.763 243.784,279.763 243.639 C 279.763 243.494,279.941 243.375,280.158 243.375 C 280.376 243.375,280.554 243.494,280.554 243.639 C 280.554 243.784,280.898 243.902,281.318 243.902 L 282.082 243.902 282.043 242.123 L 282.004 240.343 280.299 240.263 C 278.661 240.186,277.390 240.537,277.390 241.065 C 277.390 241.196,277.212 241.481,276.994 241.699 C 276.642 242.050,276.599 241.990,276.599 241.153 L 276.599 240.211 275.214 240.232 C 274.453 240.243,273.682 240.312,273.500 240.386 M283.997 248.390 L 283.996 256.586 285.835 256.533 L 287.673 256.479 287.673 251.114 C 287.673 247.712,287.770 245.748,287.937 245.748 C 288.082 245.748,288.200 245.452,288.200 245.089 C 288.200 244.726,288.350 244.430,288.532 244.430 C 288.715 244.430,289.013 244.192,289.194 243.902 C 289.529 243.365,291.892 243.095,291.892 243.594 C 291.892 243.715,292.189 243.972,292.551 244.166 C 293.052 244.434,293.210 244.730,293.210 245.397 C 293.210 245.880,293.329 246.276,293.474 246.276 C 293.641 246.276,293.738 248.165,293.738 251.417 L 293.738 256.559 295.583 256.559 L 297.429 256.559 297.429 251.022 C 297.429 247.506,297.525 245.485,297.693 245.485 C 297.838 245.485,297.956 245.247,297.956 244.957 C 297.956 244.667,298.108 244.430,298.294 244.430 C 298.479 244.430,298.802 244.192,299.011 243.902 C 299.476 243.258,301.224 243.177,301.820 243.773 C 302.039 243.992,302.345 244.092,302.501 243.996 C 302.669 243.892,302.708 243.945,302.596 244.125 C 302.493 244.293,302.534 244.430,302.687 244.430 C 302.876 244.430,302.966 246.402,302.966 250.494 L 302.966 256.559 304.812 256.559 L 306.658 256.559 306.658 249.951 C 306.658 245.665,306.566 243.401,306.397 243.505 C 306.248 243.597,306.204 243.492,306.294 243.257 C 306.380 243.032,306.319 242.848,306.159 242.848 C 305.998 242.848,305.867 242.670,305.867 242.452 C 305.867 242.235,305.681 242.057,305.454 242.057 C 305.163 242.057,305.089 241.903,305.205 241.538 C 305.333 241.136,305.218 240.982,304.695 240.850 C 304.324 240.757,304.021 240.575,304.021 240.446 C 304.021 240.317,302.716 240.211,301.121 240.211 C 299.525 240.211,298.220 240.303,298.220 240.415 C 298.220 240.527,297.805 240.842,297.297 241.115 C 296.790 241.389,296.374 241.717,296.374 241.845 C 296.374 241.973,296.115 241.835,295.797 241.540 C 295.255 241.035,294.932 240.897,294.463 240.971 C 294.354 240.988,294.265 240.824,294.265 240.606 C 294.265 240.281,293.796 240.211,291.628 240.211 C 289.660 240.211,288.991 240.297,288.991 240.549 C 288.991 241.004,287.761 241.084,287.591 240.640 C 287.500 240.404,286.888 240.273,285.727 240.241 L 283.999 240.194 283.997 248.390 M313.184 240.578 C 312.930 240.771,312.722 241.064,312.722 241.229 C 312.722 241.394,312.477 241.529,312.176 241.529 C 311.534 241.529,310.877 242.114,310.877 242.685 C 310.877 242.906,310.580 243.384,310.218 243.747 C 309.762 244.202,309.558 244.695,309.558 245.341 C 309.558 245.855,309.440 246.276,309.295 246.276 C 309.139 246.276,309.031 247.237,309.031 248.633 C 309.031 249.930,309.150 251.064,309.295 251.154 C 309.440 251.243,309.558 251.596,309.558 251.939 C 309.558 252.760,309.825 253.424,310.089 253.261 C 310.205 253.189,310.238 253.368,310.162 253.658 C 310.066 254.025,310.154 254.186,310.450 254.186 C 310.701 254.186,310.877 254.403,310.877 254.713 C 310.877 255.214,311.130 255.355,311.861 255.261 C 312.052 255.237,312.122 255.387,312.031 255.626 C 311.930 255.887,312.026 256.032,312.299 256.032 C 312.532 256.032,312.722 256.158,312.722 256.312 C 312.722 256.466,312.930 256.571,313.184 256.545 C 314.152 256.447,314.568 256.573,314.568 256.965 C 314.568 257.513,318.620 257.473,319.080 256.920 C 319.244 256.721,319.780 256.559,320.270 256.559 C 320.759 256.559,321.160 256.449,321.160 256.314 C 321.160 256.179,321.427 256.030,321.753 255.984 C 322.298 255.907,322.350 255.752,322.382 254.120 L 322.417 252.340 321.525 252.340 C 320.908 252.340,320.633 252.462,320.633 252.736 C 320.633 252.953,320.403 253.131,320.121 253.131 C 319.840 253.131,319.536 253.250,319.446 253.395 C 319.357 253.540,318.396 253.659,317.311 253.659 C 314.974 253.659,313.250 252.436,313.250 250.779 L 313.250 249.967 318.392 249.967 L 323.533 249.967 323.533 247.478 C 323.533 246.102,323.415 244.915,323.270 244.825 C 323.125 244.736,323.006 244.373,323.006 244.019 C 323.006 243.665,322.887 243.375,322.742 243.375 C 322.597 243.375,322.479 243.185,322.479 242.953 C 322.479 242.225,320.721 240.675,320.114 240.868 C 319.704 240.998,319.618 240.942,319.740 240.624 C 319.954 240.064,313.916 240.022,313.184 240.578 M328.543 240.934 C 328.036 241.328,327.581 241.742,327.532 241.854 C 327.484 241.965,327.276 242.057,327.071 242.057 C 326.848 242.057,326.697 242.323,326.697 242.716 C 326.697 243.155,326.551 243.375,326.258 243.375 C 326.016 243.375,325.898 243.455,325.995 243.552 C 326.092 243.649,325.983 244.017,325.752 244.370 C 325.521 244.722,325.389 245.231,325.459 245.499 C 325.529 245.768,325.425 246.201,325.228 246.461 C 324.803 247.021,324.710 250.903,325.115 251.154 C 325.260 251.243,325.379 251.788,325.379 252.364 C 325.379 253.050,325.515 253.464,325.773 253.563 C 325.990 253.646,326.101 253.820,326.021 253.950 C 325.941 254.080,326.060 254.186,326.286 254.186 C 326.549 254.186,326.697 254.424,326.697 254.845 C 326.697 255.266,326.846 255.504,327.109 255.504 C 327.335 255.504,327.446 255.623,327.357 255.768 C 327.264 255.918,327.486 256.032,327.868 256.032 C 328.240 256.032,328.543 256.150,328.543 256.295 C 328.543 256.440,328.825 256.559,329.170 256.559 C 329.515 256.559,329.928 256.717,330.089 256.911 C 330.534 257.447,333.514 257.494,333.716 256.968 C 333.814 256.712,334.200 256.559,334.746 256.559 C 335.226 256.559,335.665 256.421,335.721 256.252 C 335.777 256.084,336.006 255.919,336.231 255.886 C 336.765 255.808,336.613 257.492,336.034 258.071 C 335.813 258.292,335.695 258.635,335.771 258.834 C 335.850 259.039,335.742 259.196,335.522 259.196 C 335.309 259.196,335.135 259.314,335.135 259.459 C 335.135 259.604,334.885 259.723,334.580 259.723 C 334.244 259.723,334.074 259.854,334.150 260.053 C 334.238 260.285,333.931 260.385,333.109 260.390 C 332.441 260.394,331.852 260.544,331.730 260.741 C 331.556 261.022,331.491 261.019,331.379 260.727 C 331.303 260.529,330.842 260.341,330.354 260.308 C 329.537 260.253,328.892 260.040,327.690 259.429 C 326.386 258.766,325.906 259.260,325.906 261.268 C 325.906 262.225,326.041 262.623,326.500 263.018 C 327.828 264.164,337.508 263.550,337.508 262.320 C 337.508 262.197,337.635 262.096,337.791 262.096 C 338.364 262.096,338.816 261.402,338.480 261.039 C 338.238 260.776,338.241 260.742,338.497 260.887 C 338.699 261.001,338.827 260.914,338.827 260.662 C 338.827 260.435,338.945 260.250,339.090 260.250 C 339.235 260.250,339.354 260.064,339.354 259.836 C 339.354 259.608,339.533 259.242,339.753 259.023 C 340.096 258.679,340.142 257.355,340.082 249.483 L 340.013 240.343 338.255 240.265 C 336.764 240.200,336.483 240.257,336.409 240.642 C 336.327 241.067,336.293 241.068,335.879 240.654 C 335.047 239.822,329.712 240.026,328.543 240.934 M346.290 240.645 C 346.208 240.858,345.989 240.974,345.801 240.902 C 344.997 240.593,344.364 241.660,344.364 243.325 C 344.364 245.034,344.567 245.359,345.456 245.077 C 345.896 244.938,345.938 244.850,345.651 244.669 C 345.391 244.504,345.495 244.437,346.012 244.434 C 346.411 244.432,346.737 244.311,346.737 244.166 C 346.737 244.021,346.967 243.902,347.249 243.902 C 347.530 243.902,347.834 243.784,347.924 243.639 C 348.013 243.494,348.732 243.375,349.521 243.375 C 350.310 243.375,350.956 243.494,350.956 243.639 C 350.956 243.784,351.083 243.902,351.238 243.902 C 351.665 243.902,352.274 244.600,352.274 245.089 C 352.274 245.964,351.586 246.276,349.648 246.276 C 348.393 246.276,347.733 246.384,347.648 246.605 C 347.578 246.786,347.078 246.966,346.536 247.005 C 345.994 247.044,345.511 247.192,345.463 247.335 C 345.414 247.477,345.236 247.596,345.067 247.598 C 344.601 247.605,343.509 248.859,343.700 249.168 C 343.792 249.318,343.683 249.440,343.457 249.440 C 342.683 249.440,342.875 254.467,343.680 255.268 C 344.723 256.307,345.106 256.559,345.643 256.559 C 345.924 256.559,346.222 256.737,346.305 256.955 C 346.416 257.245,346.875 257.350,348.028 257.350 C 349.074 257.350,349.732 257.218,349.995 256.955 C 350.213 256.737,350.624 256.559,350.909 256.559 C 351.194 256.559,351.507 256.351,351.606 256.098 C 351.776 255.658,351.801 255.658,352.124 256.098 C 352.389 256.457,352.853 256.559,354.223 256.559 L 355.982 256.559 355.956 250.044 C 355.934 244.487,355.865 243.410,355.490 242.727 C 354.864 241.586,354.082 240.731,353.816 240.895 C 353.691 240.972,353.517 240.847,353.428 240.617 C 353.199 240.020,346.520 240.047,346.290 240.645 M359.649 240.409 C 359.644 240.517,359.639 244.166,359.638 248.517 L 359.635 256.427 361.360 256.505 L 363.085 256.583 363.085 251.451 C 363.085 248.088,363.181 246.288,363.363 246.227 C 363.516 246.176,363.668 245.949,363.702 245.723 C 363.783 245.170,365.074 243.902,365.556 243.902 C 365.768 243.902,366.011 243.754,366.095 243.573 C 366.218 243.309,366.280 243.309,366.403 243.573 C 366.488 243.754,367.021 243.902,367.590 243.902 L 368.622 243.902 368.622 242.077 L 368.622 240.252 366.513 240.238 C 364.905 240.228,364.403 240.310,364.403 240.583 C 364.403 240.779,364.107 240.997,363.744 241.067 C 363.232 241.164,363.085 241.083,363.085 240.702 C 363.085 240.200,359.670 239.909,359.649 240.409 M373.432 240.607 C 373.250 240.815,372.924 240.916,372.707 240.833 C 372.491 240.750,372.314 240.822,372.314 240.993 C 372.314 241.359,371.664 242.057,371.322 242.057 C 371.192 242.057,370.926 242.353,370.732 242.716 C 370.538 243.078,370.280 243.375,370.160 243.375 C 370.039 243.375,369.941 243.679,369.941 244.050 C 369.941 244.433,369.827 244.654,369.677 244.562 C 369.370 244.372,369.361 244.408,369.298 246.144 C 369.271 246.869,369.093 247.749,368.902 248.100 C 368.613 248.633,368.616 248.786,368.918 249.023 C 369.134 249.192,369.278 249.791,369.273 250.494 C 369.268 251.147,369.386 251.852,369.536 252.061 C 369.738 252.343,369.724 252.391,369.482 252.245 C 369.260 252.112,369.206 252.180,369.313 252.458 C 369.399 252.683,369.576 252.868,369.705 252.868 C 369.835 252.868,369.941 253.164,369.941 253.527 C 369.941 253.889,370.039 254.186,370.160 254.186 C 370.280 254.186,370.538 254.483,370.732 254.845 C 370.926 255.208,371.188 255.504,371.315 255.504 C 371.441 255.504,371.800 255.742,372.111 256.032 C 372.422 256.322,372.960 256.559,373.305 256.559 C 373.651 256.559,374.111 256.737,374.329 256.955 C 374.610 257.235,375.295 257.350,376.692 257.350 C 378.197 257.350,378.694 257.257,378.810 256.955 C 378.896 256.732,379.288 256.559,379.709 256.559 C 380.120 256.559,380.530 256.440,380.620 256.295 C 380.709 256.150,381.044 256.032,381.363 256.032 C 382.174 256.032,382.748 255.084,382.283 254.510 C 381.998 254.159,381.999 254.121,382.285 254.293 C 382.553 254.455,382.613 254.271,382.549 253.489 C 382.489 252.757,382.332 252.451,381.983 252.385 C 381.271 252.250,380.178 252.580,380.361 252.875 C 380.448 253.016,380.282 253.131,379.992 253.131 C 379.702 253.131,379.391 253.250,379.301 253.395 C 379.212 253.540,378.255 253.659,377.176 253.659 C 376.044 253.659,375.214 253.547,375.214 253.395 C 375.214 253.250,374.997 253.131,374.731 253.131 C 374.466 253.131,374.095 252.844,373.907 252.493 C 373.691 252.089,373.409 251.905,373.137 251.991 C 372.764 252.109,372.760 252.087,373.105 251.818 C 373.404 251.584,373.420 251.476,373.171 251.375 C 372.989 251.302,372.841 250.957,372.841 250.610 L 372.841 249.978 378.049 249.907 L 383.256 249.835 383.304 247.260 C 383.330 245.844,383.249 244.748,383.124 244.825 C 383.000 244.903,382.823 244.845,382.732 244.698 C 382.641 244.550,382.692 244.430,382.845 244.430 C 382.999 244.430,383.125 244.304,383.125 244.151 C 383.125 243.997,383.006 243.945,382.861 244.034 C 382.711 244.127,382.597 243.905,382.597 243.522 C 382.597 243.151,382.479 242.848,382.334 242.848 C 382.189 242.848,382.070 242.690,382.070 242.497 C 382.070 242.304,381.773 241.987,381.411 241.793 C 381.048 241.599,380.751 241.312,380.749 241.155 C 380.743 240.231,374.196 239.741,373.432 240.607 M28.477 243.401 C 28.477 243.560,28.817 244.008,29.231 244.395 C 29.646 244.783,30.069 245.364,30.172 245.688 C 30.275 246.011,30.469 246.276,30.604 246.276 C 30.740 246.276,30.850 247.403,30.850 248.780 C 30.850 250.831,30.779 251.285,30.455 251.285 C 30.206 251.285,30.059 251.536,30.059 251.960 C 30.059 252.343,29.945 252.564,29.796 252.472 C 29.651 252.382,29.532 252.494,29.532 252.720 C 29.532 252.949,29.309 253.131,29.027 253.131 C 28.749 253.131,28.477 253.264,28.423 253.426 C 28.364 253.602,27.645 253.721,26.632 253.721 C 25.618 253.721,24.899 253.602,24.840 253.426 C 24.786 253.264,24.617 253.131,24.465 253.131 C 24.099 253.131,23.208 252.100,22.913 251.335 C 22.783 251.000,22.570 250.793,22.439 250.874 C 22.302 250.958,22.218 249.979,22.241 248.582 C 22.270 246.789,22.368 246.161,22.610 246.210 C 22.792 246.246,22.940 246.068,22.940 245.814 C 22.941 245.227,24.067 243.902,24.566 243.902 C 24.774 243.902,25.057 243.791,25.194 243.655 C 25.332 243.518,26.038 243.362,26.763 243.307 C 27.488 243.252,28.171 243.185,28.279 243.159 C 28.388 243.133,28.477 243.242,28.477 243.401 M73.128 243.929 C 73.424 244.205,73.762 244.430,73.880 244.430 C 73.997 244.430,74.094 244.608,74.094 244.825 C 74.094 245.043,74.212 245.221,74.357 245.221 C 74.502 245.221,74.621 245.577,74.621 246.012 C 74.621 246.447,74.740 246.803,74.885 246.803 C 75.030 246.803,75.148 247.389,75.148 248.106 C 75.148 248.822,75.030 249.482,74.885 249.572 C 74.740 249.661,74.621 250.000,74.621 250.326 C 74.621 251.138,74.033 252.336,73.632 252.338 C 73.451 252.339,73.303 252.584,73.303 252.883 C 73.303 253.182,73.194 253.359,73.061 253.277 C 72.929 253.195,72.774 253.266,72.718 253.434 C 72.593 253.810,69.258 253.763,69.127 253.384 C 69.078 253.243,68.930 253.195,68.798 253.277 C 68.665 253.359,68.556 253.182,68.556 252.883 C 68.556 252.576,68.384 252.340,68.161 252.340 C 67.943 252.340,67.765 252.113,67.765 251.835 C 67.765 251.557,67.654 251.290,67.518 251.241 C 67.066 251.081,67.121 246.739,67.587 245.839 C 67.818 245.391,67.927 244.943,67.829 244.845 C 67.730 244.746,67.874 244.752,68.149 244.857 C 68.539 245.007,68.612 244.955,68.484 244.621 C 68.368 244.320,68.433 244.236,68.702 244.340 C 68.924 244.425,69.084 244.331,69.084 244.115 C 69.084 243.107,72.097 242.968,73.128 243.929 M187.739 245.625 C 187.739 245.847,187.917 246.097,188.134 246.180 C 188.672 246.386,188.723 251.285,188.187 251.285 C 187.999 251.285,187.695 251.701,187.511 252.208 C 187.286 252.830,187.011 253.131,186.667 253.131 C 186.387 253.131,186.157 253.250,186.157 253.395 C 186.157 253.546,185.354 253.659,184.276 253.659 C 182.282 253.659,182.230 253.631,180.999 251.932 C 180.718 251.544,180.339 251.071,180.158 250.880 C 179.632 250.325,179.712 246.377,180.254 246.169 C 180.524 246.065,180.629 245.814,180.542 245.482 C 180.467 245.193,180.531 244.880,180.685 244.785 C 180.861 244.676,180.889 244.749,180.761 244.982 C 180.649 245.186,180.852 245.026,181.213 244.628 C 181.573 244.229,182.038 243.902,182.246 243.902 C 182.453 243.902,182.736 243.791,182.874 243.655 C 183.994 242.546,187.739 244.063,187.739 245.625 M395.040 244.281 C 395.592 244.814,396.045 245.481,396.045 245.763 C 396.045 246.045,396.193 246.275,396.374 246.275 C 396.607 246.275,396.704 246.820,396.704 248.120 C 396.704 249.421,396.607 249.966,396.374 249.966 C 396.175 249.967,396.045 250.324,396.045 250.871 C 396.045 251.517,395.860 251.920,395.395 252.286 C 395.037 252.567,394.819 252.873,394.911 252.964 C 395.003 253.056,394.880 253.131,394.639 253.131 C 394.397 253.131,394.199 253.250,394.199 253.395 C 394.199 253.544,393.440 253.659,392.450 253.659 C 390.668 253.659,389.454 252.934,389.453 251.870 C 389.453 251.685,389.275 251.464,389.057 251.381 C 388.742 251.260,388.662 250.694,388.662 248.605 C 388.662 246.923,388.756 246.039,388.926 246.144 C 389.071 246.233,389.191 246.151,389.193 245.962 C 389.199 245.488,390.625 243.907,391.070 243.882 C 391.373 243.864,391.374 243.838,391.071 243.718 C 390.424 243.460,391.201 243.242,392.641 243.277 C 393.866 243.307,394.156 243.428,395.040 244.281 M167.172 243.639 C 167.172 243.784,167.409 243.902,167.699 243.902 C 167.989 243.902,168.227 244.021,168.227 244.166 C 168.227 244.311,168.405 244.430,168.622 244.430 C 168.840 244.430,169.018 244.657,169.018 244.935 C 169.018 245.213,169.132 245.480,169.271 245.528 C 169.642 245.657,169.682 251.108,169.313 251.231 C 169.151 251.285,169.018 251.496,169.018 251.700 C 169.018 252.190,168.199 253.131,167.773 253.131 C 167.587 253.131,167.436 253.250,167.436 253.395 C 167.436 253.818,164.294 253.718,163.857 253.282 C 163.650 253.075,163.481 252.829,163.481 252.736 C 163.481 252.462,162.752 251.813,162.445 251.813 C 162.289 251.813,162.162 251.345,162.162 250.774 C 162.162 250.202,162.044 249.661,161.898 249.572 C 161.753 249.482,161.635 249.060,161.635 248.633 C 161.635 248.207,161.753 247.858,161.898 247.858 C 162.044 247.858,162.162 247.396,162.162 246.831 C 162.162 246.130,162.297 245.753,162.588 245.641 C 162.857 245.538,162.963 245.286,162.876 244.954 C 162.787 244.614,162.869 244.430,163.110 244.430 C 163.314 244.430,163.481 244.334,163.481 244.217 C 163.481 243.868,164.853 243.433,166.051 243.403 C 166.668 243.388,167.172 243.494,167.172 243.639 M249.070 243.601 C 249.014 243.694,249.124 243.915,249.316 244.092 C 249.590 244.346,249.692 244.346,249.795 244.092 C 249.867 243.915,249.935 244.031,249.946 244.348 C 249.958 244.666,250.086 244.999,250.231 245.089 C 250.376 245.179,250.494 245.472,250.494 245.742 C 250.494 246.011,250.643 246.281,250.824 246.341 C 251.041 246.414,251.154 247.020,251.154 248.121 C 251.154 249.223,251.041 249.829,250.824 249.901 C 250.643 249.962,250.494 250.366,250.494 250.799 C 250.494 251.232,250.315 251.766,250.096 251.985 C 249.878 252.204,249.777 252.510,249.874 252.666 C 249.977 252.834,249.925 252.872,249.744 252.761 C 249.577 252.657,249.440 252.698,249.440 252.852 C 249.440 253.006,249.262 253.131,249.044 253.131 C 248.827 253.131,248.649 253.250,248.649 253.395 C 248.649 253.547,247.808 253.659,246.655 253.659 C 245.394 253.659,244.722 253.562,244.825 253.395 C 244.915 253.250,244.863 253.131,244.709 253.131 C 244.555 253.131,244.430 252.953,244.430 252.736 C 244.430 252.518,244.311 252.340,244.166 252.340 C 244.021 252.340,243.902 252.103,243.902 251.813 C 243.902 251.520,243.727 251.285,243.507 251.285 C 243.183 251.285,243.111 250.831,243.111 248.780 C 243.111 246.730,243.183 246.276,243.507 246.276 C 243.730 246.276,243.902 246.040,243.902 245.736 C 243.902 245.166,244.995 243.902,245.488 243.902 C 245.648 243.902,245.714 243.796,245.634 243.667 C 245.553 243.536,246.314 243.431,247.330 243.431 C 248.344 243.431,249.127 243.507,249.070 243.601 M266.092 244.441 C 267.727 246.159,267.591 246.276,263.942 246.276 C 260.287 246.276,260.097 246.113,261.767 244.421 C 263.226 242.942,264.673 242.949,266.092 244.441 M317.996 243.639 C 317.996 243.784,318.123 243.902,318.279 243.902 C 318.744 243.902,319.314 244.618,319.314 245.202 C 319.314 245.521,319.485 245.748,319.726 245.748 C 319.952 245.748,320.063 245.867,319.974 246.012 C 319.764 246.351,313.250 246.366,313.250 246.027 C 313.250 245.891,313.368 245.706,313.514 245.616 C 313.659 245.527,313.777 245.266,313.777 245.037 C 313.777 244.532,314.527 243.922,315.162 243.911 C 315.415 243.906,315.623 243.784,315.623 243.639 C 315.623 243.494,316.157 243.375,316.809 243.375 C 317.462 243.375,317.996 243.494,317.996 243.639 M334.080 243.639 C 334.080 243.784,334.267 243.902,334.495 243.902 C 334.963 243.902,335.332 244.241,335.996 245.277 C 336.505 246.073,336.684 251.285,336.202 251.285 C 336.064 251.285,335.767 251.671,335.542 252.142 C 334.765 253.769,331.774 254.277,330.497 252.999 C 330.134 252.637,329.717 252.340,329.570 252.340 C 329.423 252.340,329.376 252.221,329.466 252.076 C 329.556 251.931,329.503 251.813,329.350 251.813 C 329.196 251.813,329.071 251.345,329.071 250.774 C 329.071 250.202,328.952 249.661,328.807 249.572 C 328.662 249.482,328.543 249.126,328.543 248.780 C 328.543 248.435,328.662 248.079,328.807 247.989 C 328.952 247.900,329.071 247.359,329.071 246.787 C 329.071 246.216,329.189 245.748,329.334 245.748 C 329.479 245.748,329.598 245.608,329.598 245.436 C 329.598 245.001,330.670 243.902,331.094 243.902 C 331.286 243.902,331.444 243.784,331.444 243.639 C 331.444 243.494,332.037 243.375,332.762 243.375 C 333.487 243.375,334.080 243.494,334.080 243.639 M377.851 243.639 C 377.851 243.784,377.977 243.902,378.130 243.902 C 378.284 243.902,378.325 243.765,378.221 243.598 C 378.107 243.414,378.149 243.365,378.326 243.475 C 378.487 243.574,378.545 243.849,378.454 244.086 C 378.352 244.352,378.395 244.451,378.567 244.344 C 378.720 244.250,378.911 244.420,378.990 244.723 C 379.069 245.026,379.261 245.196,379.415 245.100 C 379.587 244.994,379.697 245.190,379.697 245.601 L 379.697 246.276 376.269 246.276 C 374.160 246.276,372.841 246.174,372.841 246.012 C 372.841 245.867,372.930 245.747,373.039 245.746 C 373.148 245.745,373.519 245.330,373.864 244.824 C 374.209 244.317,374.654 243.902,374.853 243.902 C 375.052 243.902,375.214 243.784,375.214 243.639 C 375.214 243.494,375.808 243.375,376.533 243.375 C 377.258 243.375,377.851 243.494,377.851 243.639 M352.305 250.033 C 352.363 251.178,352.221 251.640,351.657 252.140 C 351.344 252.417,351.235 252.569,351.414 252.478 C 351.629 252.369,351.687 252.452,351.584 252.720 C 351.498 252.945,351.331 253.068,351.213 252.995 C 351.095 252.922,350.819 253.042,350.600 253.261 C 350.067 253.794,347.629 253.797,347.097 253.265 C 346.017 252.185,346.825 249.967,348.300 249.967 C 348.746 249.967,349.110 249.848,349.110 249.703 C 349.110 249.075,352.272 249.402,352.305 250.033 " stroke="none" fill="#8c8ca4" fill-rule="evenodd"></path><path id="path1" d="M187.692 90.795 C 187.449 90.980,187.331 91.264,187.432 91.426 C 187.545 91.609,187.727 91.479,187.915 91.081 C 188.081 90.729,188.198 90.445,188.176 90.450 C 188.153 90.455,187.935 90.610,187.692 90.795 M398.088 233.014 C 398.415 233.077,398.949 233.077,399.275 233.014 C 399.601 232.951,399.334 232.900,398.682 232.900 C 398.029 232.900,397.762 232.951,398.088 233.014 M399.857 244.825 C 399.857 250.771,399.891 253.241,399.934 250.314 C 399.976 247.387,399.976 242.522,399.934 239.503 C 399.891 236.485,399.857 238.879,399.857 244.825 M359.509 248.517 C 359.510 252.577,359.546 254.202,359.591 252.126 C 359.635 250.051,359.635 246.729,359.591 244.743 C 359.546 242.758,359.509 244.456,359.509 248.517 M251.094 248.121 C 251.094 248.774,251.145 249.041,251.208 248.715 C 251.271 248.388,251.271 247.854,251.208 247.528 C 251.145 247.202,251.094 247.469,251.094 248.121 M385.049 248.912 C 385.049 249.710,385.099 250.036,385.159 249.637 C 385.220 249.239,385.220 248.586,385.159 248.187 C 385.099 247.788,385.049 248.115,385.049 248.912 M176.198 248.649 C 176.198 249.156,176.253 249.364,176.319 249.110 C 176.385 248.856,176.385 248.441,176.319 248.187 C 176.253 247.933,176.198 248.141,176.198 248.649 " stroke="none" fill="#908ca4" fill-rule="evenodd"></path><path id="path2" d="M187.692 90.795 C 187.449 90.980,187.331 91.264,187.432 91.426 C 187.545 91.609,187.727 91.479,187.915 91.081 C 188.081 90.729,188.198 90.445,188.176 90.450 C 188.153 90.455,187.935 90.610,187.692 90.795 M398.088 233.014 C 398.415 233.077,398.949 233.077,399.275 233.014 C 399.601 232.951,399.334 232.900,398.682 232.900 C 398.029 232.900,397.762 232.951,398.088 233.014 M399.857 244.825 C 399.857 250.771,399.891 253.241,399.934 250.314 C 399.976 247.387,399.976 242.522,399.934 239.503 C 399.891 236.485,399.857 238.879,399.857 244.825 M359.509 248.517 C 359.510 252.577,359.546 254.202,359.591 252.126 C 359.635 250.051,359.635 246.729,359.591 244.743 C 359.546 242.758,359.509 244.456,359.509 248.517 M251.094 248.121 C 251.094 248.774,251.145 249.041,251.208 248.715 C 251.271 248.388,251.271 247.854,251.208 247.528 C 251.145 247.202,251.094 247.469,251.094 248.121 M385.049 248.912 C 385.049 249.710,385.099 250.036,385.159 249.637 C 385.220 249.239,385.220 248.586,385.159 248.187 C 385.099 247.788,385.049 248.115,385.049 248.912 M176.198 248.649 C 176.198 249.156,176.253 249.364,176.319 249.110 C 176.385 248.856,176.385 248.441,176.319 248.187 C 176.253 247.933,176.198 248.141,176.198 248.649 " stroke="none" fill="#908ca4" fill-rule="evenodd"></path><path id="path3" d="M187.692 90.795 C 187.449 90.980,187.331 91.264,187.432 91.426 C 187.545 91.609,187.727 91.479,187.915 91.081 C 188.081 90.729,188.198 90.445,188.176 90.450 C 188.153 90.455,187.935 90.610,187.692 90.795 M398.088 233.014 C 398.415 233.077,398.949 233.077,399.275 233.014 C 399.601 232.951,399.334 232.900,398.682 232.900 C 398.029 232.900,397.762 232.951,398.088 233.014 M399.857 244.825 C 399.857 250.771,399.891 253.241,399.934 250.314 C 399.976 247.387,399.976 242.522,399.934 239.503 C 399.891 236.485,399.857 238.879,399.857 244.825 M359.509 248.517 C 359.510 252.577,359.546 254.202,359.591 252.126 C 359.635 250.051,359.635 246.729,359.591 244.743 C 359.546 242.758,359.509 244.456,359.509 248.517 M251.094 248.121 C 251.094 248.774,251.145 249.041,251.208 248.715 C 251.271 248.388,251.271 247.854,251.208 247.528 C 251.145 247.202,251.094 247.469,251.094 248.121 M385.049 248.912 C 385.049 249.710,385.099 250.036,385.159 249.637 C 385.220 249.239,385.220 248.586,385.159 248.187 C 385.099 247.788,385.049 248.115,385.049 248.912 M176.198 248.649 C 176.198 249.156,176.253 249.364,176.319 249.110 C 176.385 248.856,176.385 248.441,176.319 248.187 C 176.253 247.933,176.198 248.141,176.198 248.649 " stroke="none" fill="#908ca4" fill-rule="evenodd"></path><path id="path4" d="M187.692 90.795 C 187.449 90.980,187.331 91.264,187.432 91.426 C 187.545 91.609,187.727 91.479,187.915 91.081 C 188.081 90.729,188.198 90.445,188.176 90.450 C 188.153 90.455,187.935 90.610,187.692 90.795 M398.088 233.014 C 398.415 233.077,398.949 233.077,399.275 233.014 C 399.601 232.951,399.334 232.900,398.682 232.900 C 398.029 232.900,397.762 232.951,398.088 233.014 M399.857 244.825 C 399.857 250.771,399.891 253.241,399.934 250.314 C 399.976 247.387,399.976 242.522,399.934 239.503 C 399.891 236.485,399.857 238.879,399.857 244.825 M359.509 248.517 C 359.510 252.577,359.546 254.202,359.591 252.126 C 359.635 250.051,359.635 246.729,359.591 244.743 C 359.546 242.758,359.509 244.456,359.509 248.517 M251.094 248.121 C 251.094 248.774,251.145 249.041,251.208 248.715 C 251.271 248.388,251.271 247.854,251.208 247.528 C 251.145 247.202,251.094 247.469,251.094 248.121 M385.049 248.912 C 385.049 249.710,385.099 250.036,385.159 249.637 C 385.220 249.239,385.220 248.586,385.159 248.187 C 385.099 247.788,385.049 248.115,385.049 248.912 M176.198 248.649 C 176.198 249.156,176.253 249.364,176.319 249.110 C 176.385 248.856,176.385 248.441,176.319 248.187 C 176.253 247.933,176.198 248.141,176.198 248.649 " stroke="none" fill="#908ca4" fill-rule="evenodd"></path></g></svg>